<?xml version="1.0" encoding="UTF-8"?>
<!DOCTYPE svg PUBLIC "-//W3C//DTD SVG 1.1//EN" "http://www.w3.org/Graphics/SVG/1.1/DTD/svg11.dtd">
<svg version="1.2" width="200mm" height="139mm" viewBox="0 0 20000 13900" preserveAspectRatio="xMidYMid" fill-rule="evenodd" clip-path="url(#presentation_clip_path)" stroke-width="28.222" stroke-linejoin="round" xmlns="http://www.w3.org/2000/svg" xmlns:ooo="http://xml.openoffice.org/svg/export" xmlns:xlink="http://www.w3.org/1999/xlink" xml:space="preserve">
 <defs class="ClipPathGroup">
  <clipPath id="presentation_clip_path" clipPathUnits="userSpaceOnUse">
   <rect x="0" y="0" width="20000" height="13900"/>
  </clipPath>
 </defs>
 <defs class="TextShapeIndex">
  <g ooo:slide="id1" ooo:id-list="id3 id4 id5 id6"/>
 </defs>
 <defs class="EmbeddedBulletChars">
  <g id="bullet-char-template(57356)" transform="scale(0.00048828125,-0.00048828125)">
   <path d="M 580,1141 L 1163,571 580,0 -4,571 580,1141 Z"/>
  </g>
  <g id="bullet-char-template(57354)" transform="scale(0.00048828125,-0.00048828125)">
   <path d="M 8,1128 L 1137,1128 1137,0 8,0 8,1128 Z"/>
  </g>
  <g id="bullet-char-template(10146)" transform="scale(0.00048828125,-0.00048828125)">
   <path d="M 174,0 L 602,739 174,1481 1456,739 174,0 Z M 1358,739 L 309,1346 659,739 1358,739 Z"/>
  </g>
  <g id="bullet-char-template(10132)" transform="scale(0.00048828125,-0.00048828125)">
   <path d="M 2015,739 L 1276,0 717,0 1260,543 174,543 174,936 1260,936 717,1481 1274,1481 2015,739 Z"/>
  </g>
  <g id="bullet-char-template(10007)" transform="scale(0.00048828125,-0.00048828125)">
   <path d="M 0,-2 C -7,14 -16,27 -25,37 L 356,567 C 262,823 215,952 215,954 215,979 228,992 255,992 264,992 276,990 289,987 310,991 331,999 354,1012 L 381,999 492,748 772,1049 836,1024 860,1049 C 881,1039 901,1025 922,1006 886,937 835,863 770,784 769,783 710,716 594,584 L 774,223 C 774,196 753,168 711,139 L 727,119 C 717,90 699,76 672,76 641,76 570,178 457,381 L 164,-76 C 142,-110 111,-127 72,-127 30,-127 9,-110 8,-76 1,-67 -2,-52 -2,-32 -2,-23 -1,-13 0,-2 Z"/>
  </g>
  <g id="bullet-char-template(10004)" transform="scale(0.00048828125,-0.00048828125)">
   <path d="M 285,-33 C 182,-33 111,30 74,156 52,228 41,333 41,471 41,549 55,616 82,672 116,743 169,778 240,778 293,778 328,747 346,684 L 369,508 C 377,444 397,411 428,410 L 1163,1116 C 1174,1127 1196,1133 1229,1133 1271,1133 1292,1118 1292,1087 L 1292,965 C 1292,929 1282,901 1262,881 L 442,47 C 390,-6 338,-33 285,-33 Z"/>
  </g>
  <g id="bullet-char-template(9679)" transform="scale(0.00048828125,-0.00048828125)">
   <path d="M 813,0 C 632,0 489,54 383,161 276,268 223,411 223,592 223,773 276,916 383,1023 489,1130 632,1184 813,1184 992,1184 1136,1130 1245,1023 1353,916 1407,772 1407,592 1407,412 1353,268 1245,161 1136,54 992,0 813,0 Z"/>
  </g>
  <g id="bullet-char-template(8226)" transform="scale(0.00048828125,-0.00048828125)">
   <path d="M 346,457 C 273,457 209,483 155,535 101,586 74,649 74,723 74,796 101,859 155,911 209,963 273,989 346,989 419,989 480,963 531,910 582,859 608,796 608,723 608,648 583,586 532,535 482,483 420,457 346,457 Z"/>
  </g>
  <g id="bullet-char-template(8211)" transform="scale(0.00048828125,-0.00048828125)">
   <path d="M -4,459 L 1135,459 1135,606 -4,606 -4,459 Z"/>
  </g>
 </defs>
 <defs class="TextEmbeddedBitmaps"/>
 <g>
  <g id="id2" class="Master_Slide">
   <g id="bg-id2" class="Background"/>
   <g id="bo-id2" class="BackgroundObjects"/>
  </g>
 </g>
 <g class="SlideGroup">
  <g>
   <g id="id1" class="Slide" clip-path="url(#presentation_clip_path)">
    <g class="Page">
     <g class="Group">
      <g class="com.sun.star.drawing.ClosedBezierShape">
       <g id="id3">
        <path fill="rgb(128,128,128)" stroke="none" d="M 14,4531 C 16,4494 32,4476 66,4442 154,4354 364,4335 606,4392 1280,4551 1666,4749 2446,5333 2820,5613 3102,5915 3297,6242 3598,6749 3637,7013 3463,7359 3184,7911 2742,8124 2093,8019 1364,7900 1011,7713 868,7373 810,7233 818,7042 886,6970 L 942,6910 850,6872 C 614,6773 306,6462 165,6180 72,5995 65,5877 138,5784 200,5705 402,5604 497,5604 587,5604 581,5551 481,5456 361,5344 173,5085 113,4949 84,4884 47,4758 31,4668 21,4616 15,4580 14,4553 L 14,4531 Z M 16871,8148 C 16530,8036 16337,7865 16161,7520 15977,7159 16013,6901 16320,6389 16589,5939 16948,5605 17709,5095 17971,4920 18460,4682 18683,4621 19214,4477 19430,4469 19550,4590 19611,4650 19612,4660 19584,4816 19568,4905 19531,5031 19502,5096 19442,5233 19255,5491 19135,5604 19034,5698 19028,5752 19118,5752 19213,5752 19415,5853 19477,5931 19551,6025 19543,6142 19451,6327 19310,6609 19001,6920 18765,7019 L 18673,7058 18729,7117 C 18770,7161 18785,7212 18785,7303 18785,7654 18464,7959 17974,8075 17445,8200 17099,8223 16871,8148 Z"/>
        <path fill="rgb(255,255,255)" stroke="none" d="M 214,4331 C 216,4294 232,4276 266,4242 354,4154 564,4135 806,4192 1480,4351 1866,4549 2646,5133 3020,5413 3302,5715 3497,6042 3798,6549 3837,6813 3663,7159 3384,7711 2942,7924 2293,7819 1564,7700 1211,7513 1068,7173 1010,7033 1018,6842 1086,6770 L 1142,6710 1050,6672 C 814,6573 506,6262 365,5980 272,5795 265,5677 338,5584 400,5505 602,5404 697,5404 787,5404 781,5351 681,5256 561,5144 373,4885 313,4749 284,4684 247,4558 231,4468 221,4416 215,4380 214,4353 L 214,4331 Z M 17071,7948 C 16730,7836 16537,7665 16361,7320 16177,6959 16213,6701 16520,6189 16789,5739 17148,5405 17909,4895 18171,4720 18660,4482 18883,4421 19414,4277 19630,4269 19750,4390 19811,4450 19812,4460 19784,4616 19768,4705 19731,4831 19702,4896 19642,5033 19455,5291 19335,5404 19234,5498 19228,5552 19318,5552 19413,5552 19615,5653 19677,5731 19751,5825 19743,5942 19651,6127 19510,6409 19201,6720 18965,6819 L 18873,6858 18929,6917 C 18970,6961 18985,7012 18985,7103 18985,7454 18664,7759 18174,7875 17645,8000 17299,8023 17071,7948 Z"/>
       </g>
      </g>
      <g class="com.sun.star.drawing.ClosedBezierShape">
       <g id="id4">
        <path fill="rgb(128,128,128)" stroke="none" d="M 10022,13818 C 9797,13817 9599,13811 9520,13802 8660,13705 7904,13481 7114,13087 6460,12762 5936,12382 5387,11836 4368,10823 3717,9562 3471,8124 L 3418,7816 3567,7652 C 3649,7562 3753,7417 3799,7329 3874,7185 3883,7146 3883,6930 3884,6705 3878,6680 3773,6462 3712,6335 3618,6163 3564,6079 L 3466,5925 3498,5764 C 3706,4680 4206,3603 4895,2755 6949,226 10522,-510 13404,1002 14073,1353 14479,1654 15052,2225 15660,2831 16072,3405 16408,4113 16660,4647 16882,5329 16953,5794 L 16985,6001 16860,6193 C 16792,6299 16686,6490 16624,6619 16518,6839 16512,6863 16513,7090 16513,7306 16521,7345 16596,7489 16642,7576 16751,7727 16839,7822 L 16999,7997 16951,8261 C 16511,10685 14715,12733 12365,13492 11627,13730 11168,13804 10345,13816 10285,13817 10225,13818 10165,13818 L 10022,13818 Z M 10997,12542 C 11528,12475 12050,12343 12529,12153 13029,11954 13892,11454 13812,11410 13778,11391 12592,10864 10880,10108 L 10325,9863 10029,10003 C 9866,10080 9094,10459 8313,10844 7532,11229 6884,11535 6874,11524 6864,11512 6878,11186 6904,10799 6953,10092 7080,8113 7094,7858 L 7101,7722 6170,6692 C 4694,5058 4591,4939 4624,4920 4641,4910 5133,4805 5718,4686 6303,4567 7142,4396 7583,4306 L 8383,4142 8551,3822 C 8643,3646 8858,3238 9028,2917 9199,2595 9425,2161 9531,1951 9637,1742 9818,1390 9934,1170 10050,950 10145,765 10145,760 10145,742 9887,750 9610,777 6437,1089 4045,3773 4172,6877 4223,8115 4607,9197 5346,10183 5582,10498 6098,11032 6383,11256 7266,11949 8303,12387 9414,12538 9775,12587 10618,12589 10997,12542 Z M 14559,10800 C 15343,10016 15847,9137 16113,8088 16308,7317 16338,6367 16190,5592 15705,3043 13585,1098 10955,790 10766,768 10517,750 10402,750 10214,750 10194,755 10210,796 10220,822 10331,1028 10457,1255 10583,1482 10716,1721 10752,1787 10788,1853 10964,2170 11142,2491 11321,2813 11590,3301 11739,3575 11889,3849 12031,4097 12056,4124 12090,4164 12200,4190 12565,4245 13472,4383 15584,4688 15734,4703 15818,4712 15887,4726 15887,4734 15887,4742 15834,4804 15770,4870 15705,4936 15517,5158 15351,5363 15185,5569 14904,5916 14726,6134 14548,6353 14213,6765 13982,7049 L 13563,7567 13703,9429 C 13780,10453 13849,11318 13856,11351 13868,11410 13874,11407 14033,11286 14124,11217 14361,10998 14559,10800 Z"/>
        <path fill="rgb(253,192,192)" stroke="none" d="M 9822,13618 C 9597,13617 9399,13611 9320,13602 8460,13505 7704,13281 6914,12887 6260,12562 5736,12182 5187,11636 4168,10623 3517,9362 3271,7924 L 3218,7616 3367,7452 C 3449,7362 3553,7217 3599,7129 3674,6985 3683,6946 3683,6730 3684,6505 3678,6480 3573,6262 3512,6135 3418,5963 3364,5879 L 3266,5725 3298,5564 C 3506,4480 4006,3403 4695,2555 6749,26 10322,-710 13204,802 13873,1153 14279,1454 14852,2025 15460,2631 15872,3205 16208,3913 16460,4447 16682,5129 16753,5594 L 16785,5801 16660,5993 C 16592,6099 16486,6290 16424,6419 16318,6639 16312,6663 16313,6890 16313,7106 16321,7145 16396,7289 16442,7376 16551,7527 16639,7622 L 16799,7797 16751,8061 C 16311,10485 14515,12533 12165,13292 11427,13530 10968,13604 10145,13616 10085,13617 10025,13618 9965,13618 L 9822,13618 Z M 10797,12342 C 11328,12275 11850,12143 12329,11953 12829,11754 13692,11254 13612,11210 13578,11191 12392,10664 10680,9908 L 10125,9663 9829,9803 C 9666,9880 8894,10259 8113,10644 7332,11029 6684,11335 6674,11324 6664,11312 6678,10986 6704,10599 6753,9892 6880,7913 6894,7658 L 6901,7522 5970,6492 C 4494,4858 4391,4739 4424,4720 4441,4710 4933,4605 5518,4486 6103,4367 6942,4196 7383,4106 L 8183,3942 8351,3622 C 8443,3446 8658,3038 8828,2717 8999,2395 9225,1961 9331,1751 9437,1542 9618,1190 9734,970 9850,750 9945,565 9945,560 9945,542 9687,550 9410,577 6237,889 3845,3573 3972,6677 4023,7915 4407,8997 5146,9983 5382,10298 5898,10832 6183,11056 7066,11749 8103,12187 9214,12338 9575,12387 10418,12389 10797,12342 Z M 14359,10600 C 15143,9816 15647,8937 15913,7888 16108,7117 16138,6167 15990,5392 15505,2843 13385,898 10755,590 10566,568 10317,550 10202,550 10014,550 9994,555 10010,596 10020,622 10131,828 10257,1055 10383,1282 10516,1521 10552,1587 10588,1653 10764,1970 10942,2291 11121,2613 11390,3101 11539,3375 11689,3649 11831,3897 11856,3924 11890,3964 12000,3990 12365,4045 13272,4183 15384,4488 15534,4503 15618,4512 15687,4526 15687,4534 15687,4542 15634,4604 15570,4670 15505,4736 15317,4958 15151,5163 14985,5369 14704,5716 14526,5934 14348,6153 14013,6565 13782,6849 L 13363,7367 13503,9229 C 13580,10253 13649,11118 13656,11151 13668,11210 13674,11207 13833,11086 13924,11017 14161,10798 14359,10600 Z"/>
       </g>
      </g>
      <g class="com.sun.star.drawing.ClosedBezierShape">
       <g id="id5">
        <path fill="rgb(128,128,128)" stroke="none" d="M 6836,11406 C 6836,11328 6854,11018 6875,10719 6912,10184 6959,9477 7035,8313 L 7073,7728 6999,7648 C 6958,7604 6597,7204 6197,6758 5797,6312 5391,5864 5295,5761 4912,5351 4570,4945 4592,4925 4605,4913 4741,4878 4895,4846 5729,4675 8314,4153 8327,4153 8336,4153 8413,4018 8498,3854 8583,3689 8770,3336 8914,3069 9058,2801 9273,2389 9392,2152 9649,1638 10074,831 10114,781 10137,753 10154,768 10194,848 10223,904 10517,1440 10849,2039 11181,2639 11581,3364 11739,3651 L 12026,4173 12136,4188 C 12197,4196 12396,4227 12579,4256 12884,4305 13701,4423 15197,4635 15518,4680 15798,4722 15818,4728 15843,4735 15807,4790 15711,4891 15564,5046 15262,5415 14146,6799 L 13521,7573 13606,8674 C 13653,9280 13716,10117 13747,10533 13778,10949 13808,11321 13814,11359 L 13825,11428 13727,11381 C 13611,11326 11793,10521 10914,10137 10577,9989 10287,9868 10273,9868 10259,9868 9637,10169 8893,10536 8149,10903 7391,11276 7208,11365 7025,11454 6867,11532 6856,11537 6845,11543 6836,11484 6836,11406 Z"/>
        <path fill="rgb(253,230,129)" stroke="none" d="M 6636,11206 C 6636,11128 6654,10818 6675,10519 6712,9984 6759,9277 6835,8113 L 6873,7528 6799,7448 C 6758,7404 6397,7004 5997,6558 5597,6112 5191,5664 5095,5561 4712,5151 4370,4745 4392,4725 4405,4713 4541,4678 4695,4646 5529,4475 8114,3953 8127,3953 8136,3953 8213,3818 8298,3654 8383,3489 8570,3136 8714,2869 8858,2601 9073,2189 9192,1952 9449,1438 9874,631 9914,581 9937,553 9954,568 9994,648 10023,704 10317,1240 10649,1839 10981,2439 11381,3164 11539,3451 L 11826,3973 11936,3988 C 11997,3996 12196,4027 12379,4056 12684,4105 13501,4223 14997,4435 15318,4480 15598,4522 15618,4528 15643,4535 15607,4590 15511,4691 15364,4846 15062,5215 13946,6599 L 13321,7373 13406,8474 C 13453,9080 13516,9917 13547,10333 13578,10749 13608,11121 13614,11159 L 13625,11228 13527,11181 C 13411,11126 11593,10321 10714,9937 10377,9789 10087,9668 10073,9668 10059,9668 9437,9969 8693,10336 7949,10703 7191,11076 7008,11165 6825,11254 6667,11332 6656,11337 6645,11343 6636,11284 6636,11206 Z"/>
       </g>
      </g>
      <g class="com.sun.star.drawing.ClosedBezierShape">
       <g id="id6">
        <path fill="rgb(128,128,128)" stroke="none" d="M 414,4530 C 416,4493 432,4475 466,4441 554,4353 764,4334 1006,4391 1680,4550 2066,4748 2846,5332 3220,5612 3502,5914 3697,6241 3998,6748 4037,7012 3863,7358 3584,7910 3142,8123 2493,8018 1764,7899 1411,7712 1268,7372 1210,7232 1218,7041 1286,6969 L 1342,6909 1250,6871 C 1014,6772 706,6461 565,6179 472,5994 465,5876 538,5783 600,5704 802,5603 897,5603 987,5603 981,5550 881,5455 761,5343 573,5084 513,4948 484,4883 447,4757 431,4667 421,4615 415,4579 414,4552 L 414,4530 Z M 17271,8147 C 16930,8035 16737,7864 16561,7519 16377,7158 16413,6900 16720,6388 16989,5938 17348,5604 18109,5094 18371,4919 18860,4681 19083,4620 19614,4476 19830,4468 19950,4589 20011,4649 20012,4659 19984,4815 19968,4904 19931,5030 19902,5095 19842,5232 19655,5490 19535,5603 19434,5697 19428,5751 19518,5751 19613,5751 19815,5852 19877,5930 19951,6024 19943,6141 19851,6326 19710,6608 19401,6919 19165,7018 L 19073,7057 19129,7116 C 19170,7160 19185,7211 19185,7302 19185,7653 18864,7958 18374,8074 17845,8199 17499,8222 17271,8147 Z"/>
        <path fill="rgb(255,255,255)" stroke="none" d="M 214,4330 C 216,4293 232,4275 266,4241 354,4153 564,4134 806,4191 1480,4350 1866,4548 2646,5132 3020,5412 3302,5714 3497,6041 3798,6548 3837,6812 3663,7158 3384,7710 2942,7923 2293,7818 1564,7699 1211,7512 1068,7172 1010,7032 1018,6841 1086,6769 L 1142,6709 1050,6671 C 814,6572 506,6261 365,5979 272,5794 265,5676 338,5583 400,5504 602,5403 697,5403 787,5403 781,5350 681,5255 561,5143 373,4884 313,4748 284,4683 247,4557 231,4467 221,4415 215,4379 214,4352 L 214,4330 Z M 17071,7947 C 16730,7835 16537,7664 16361,7319 16177,6958 16213,6700 16520,6188 16789,5738 17148,5404 17909,4894 18171,4719 18660,4481 18883,4420 19414,4276 19630,4268 19750,4389 19811,4449 19812,4459 19784,4615 19768,4704 19731,4830 19702,4895 19642,5032 19455,5290 19335,5403 19234,5497 19228,5551 19318,5551 19413,5551 19615,5652 19677,5730 19751,5824 19743,5941 19651,6126 19510,6408 19201,6719 18965,6818 L 18873,6857 18929,6916 C 18970,6960 18985,7011 18985,7102 18985,7453 18664,7758 18174,7874 17645,7999 17299,8022 17071,7947 Z"/>
       </g>
      </g>
     </g>
    </g>
   </g>
  </g>
 </g>
</svg>